<?xml version="1.0" encoding="UTF-8"?>
<svg xmlns="http://www.w3.org/2000/svg" version="1.1" viewBox="0 0 240 200">
  <!-- Generator: Adobe Illustrator 29.5.1, SVG Export Plug-In . SVG Version: 2.1.0 Build 141)  -->
  <defs>
    <style>
      .st0 {
        fill: #a67c52;
      }

      .st1 {
        fill: #fff;
      }

      .st2 {
        fill: #754c24;
      }

      .st3 {
        fill: #f2f2f2;
      }

      .st4 {
        fill: #2e3192;
        font-family: BodoniSvtyTwoSCITCTT-Book, 'Bodoni 72 Smallcaps';
        font-size: 17.25px;
      }
    </style>
  </defs>
  <g id="Layer_1">
    <g>
      <path class="st1" d="M149.53,169.46c-17.4,0-31.56-12.9-31.56-28.76s14.16-28.75,31.56-28.75,31.56,12.9,31.56,28.75-14.16,28.76-31.56,28.76Z"/>
      <path class="st2" d="M149.53,115.94c15.2,0,27.56,11.11,27.56,24.76s-12.36,24.76-27.56,24.76-27.56-11.11-27.56-24.76,12.36-24.76,27.56-24.76M149.53,107.94c-19.64,0-35.56,14.67-35.56,32.76s15.92,32.76,35.56,32.76,35.56-14.67,35.56-32.76-15.92-32.76-35.56-32.76h0Z"/>
    </g>
    <g>
      <path class="st1" d="M149.53,169.44c-17.54,0-31.82-13.21-31.82-29.45s14.27-29.45,31.82-29.45,31.82,13.21,31.82,29.45-14.27,29.45-31.82,29.45Z"/>
      <path class="st0" d="M149.53,114.54c15.34,0,27.82,11.42,27.82,25.45s-12.48,25.45-27.82,25.45-27.82-11.42-27.82-25.45,12.48-25.45,27.82-25.45M149.53,106.54c-19.78,0-35.82,14.98-35.82,33.45s16.04,33.45,35.82,33.45,35.82-14.98,35.82-33.45-16.04-33.45-35.82-33.45h0Z"/>
    </g>
    <path class="st3" d="M155.7,112.94c15.89,0,28.81,12.45,28.81,27.76s-12.92,27.76-28.81,27.76-28.81-12.45-28.81-27.76,12.92-27.76,28.81-27.76M155.7,107.94c-18.67,0-33.81,14.67-33.81,32.76s15.14,32.76,33.81,32.76,33.81-14.67,33.81-32.76-15.14-32.76-33.81-32.76h0Z"/>
  </g>
  <g id="Layer_2">
    <g>
      <rect class="st3" x="113.71" y="130.96" width="74.42" height="17.49"/>
      <text/>
      <text class="st4" transform="translate(114.4 145.46) scale(1.16 1)"><tspan x="0" y="0">Fondata</tspan></text>
    </g>
  </g>
</svg>